<svg width="30" height="16" viewBox="0 0 30 16" fill="none" xmlns="http://www.w3.org/2000/svg">
<rect x="0.603241" width="28.5" height="16" rx="8" fill="#9BCAF5"/>
<path d="M15.7032 8C15.7032 6.66791 14.7185 5.32823 13.5175 5.32823C13.3753 5.32823 12.9063 5.32824 12.789 5.32824C11.5818 5.32824 10.6032 6.52443 10.6032 8C10.6032 9.27152 11.3299 10.3356 12.3032 10.6056C12.4595 10.6489 12.622 10.6718 12.789 10.6718" stroke="black" stroke-linecap="round" stroke-linejoin="round"/>
<path d="M14.0032 8C14.0032 9.33209 14.988 10.6718 16.189 10.6718C16.3312 10.6718 16.8002 10.6718 16.9175 10.6718C18.1247 10.6718 19.1032 9.47558 19.1032 8C19.1032 6.72849 18.3766 5.66442 17.4032 5.39444C17.247 5.35111 17.0844 5.32823 16.9175 5.32823" stroke="black" stroke-linecap="round" stroke-linejoin="round"/>
</svg>
