<svg width="330" height="64" viewBox="0 0 330 64" fill="none" xmlns="http://www.w3.org/2000/svg">
<path d="M260.104 52.7589C254.069 59.3341 246.737 62.7562 237.953 62.8932C232.587 62.9769 227.22 62.9309 221.853 62.9022C218.872 62.8862 217.373 61.4727 217.368 58.5175C217.339 40.4472 217.341 22.3768 217.37 4.30651C217.374 1.85093 218.987 0.0358987 221.31 0.0574097C228.265 0.121767 235.265 -0.118113 242.16 0.593335C254.572 1.87378 264.996 12.4684 266.884 24.8927C268.427 35.0497 266.936 44.4584 260.104 52.7589ZM225.609 12.2771C225.609 25.8692 225.64 39.4615 225.573 53.0533C225.564 54.999 226.096 55.7752 228.143 55.6734C231.179 55.5226 234.232 55.7304 237.271 55.6132C242.809 55.3995 247.809 53.6239 251.86 49.77C258.878 43.092 260.491 34.7442 258.689 25.6144C256.943 16.7697 251.599 10.7466 242.892 8.42708C238.803 7.33809 234.351 7.46146 230.055 7.33841C225.014 7.19401 225.656 6.73652 225.609 12.2771Z" fill="#8EB4F6"/>
<path d="M179.563 37.0063C183.925 37.0055 188.067 37.0055 192.228 37.0055C191.846 32.7888 187.604 28.2717 182.788 26.9749C176.736 25.3449 171.526 26.8667 167.464 31.6849C163.657 36.2002 162.991 41.385 165.252 46.713C167.61 52.2731 172.114 55.2743 178.152 55.5671C181.479 55.7284 184.594 54.7032 187.379 52.7245C189.977 50.8787 192.029 51.035 193.487 52.9707C194.988 54.9636 194.461 57.2791 191.865 59.0897C184.543 64.1952 176.635 64.986 168.725 61.0056C160.876 57.056 156.455 50.5022 156.303 41.458C156.146 32.1302 160.453 25.2411 168.508 21.0291C175.893 17.1677 183.587 17.5239 190.651 22.1005C197.125 26.2947 200.894 32.2972 201.035 40.2275C201.092 43.4149 199.634 44.9599 196.407 44.9906C190.803 45.0439 185.197 45.0375 179.593 44.9921C176.672 44.9684 174.768 43.4005 174.692 41.1293C174.616 38.8843 176.357 37.3416 179.563 37.0063Z" fill="#829FF7"/>
<path d="M123.954 37.2081C128.315 37.2072 132.457 37.2072 136.618 37.2072C136.236 32.9905 131.995 28.4735 127.179 27.1766C121.126 25.5466 115.916 27.0684 111.854 31.8866C108.048 36.4019 107.382 41.5868 109.642 46.9147C112.001 52.4749 116.504 55.4761 122.543 55.7688C125.869 55.9301 128.984 54.9049 131.77 52.9262C134.368 51.0804 136.419 51.2367 137.877 53.1724C139.379 55.1654 138.852 57.4808 136.255 59.2914C128.934 64.3969 121.026 65.1877 113.116 61.2073C105.267 57.2577 100.846 50.704 100.694 41.6597C100.537 32.332 104.843 25.4428 112.898 21.2308C120.283 17.3694 127.978 17.7257 135.042 22.3023C141.516 26.4965 145.285 32.4989 145.426 40.4292C145.483 43.6167 144.024 45.1616 140.797 45.1923C135.193 45.2456 129.588 45.2392 123.984 45.1938C121.062 45.1701 119.158 43.6022 119.082 41.331C119.007 39.086 120.748 37.5433 123.954 37.2081Z" fill="#758AF9"/>
<path d="M26.9998 35.1105C20.7017 35.1105 14.6426 35.1105 8.30899 35.1105C8.30899 36.2696 8.30908 37.1249 8.30898 37.9803C8.3082 44.7743 8.33025 51.5684 8.29593 58.3623C8.28115 61.2904 6.79795 62.8779 4.20471 62.916C1.57175 62.9548 0.0237013 61.4101 0.0194474 58.4962C-0.00682459 40.512 -0.00568043 22.5278 0.0180685 4.54368C0.0219557 1.60045 1.49905 0.0450867 4.42205 0.0334892C16.4322 -0.0141603 28.4427 -0.00686764 40.4529 0.0297039C43.1323 0.0378677 44.8275 1.7355 44.779 4.1097C44.7331 6.35396 43.1321 7.73389 40.3407 7.74313C30.6524 7.77522 20.9641 7.75822 11.2757 7.75987C10.4104 7.76002 9.54505 7.75989 8.49517 7.75989C8.49517 14.3202 8.49517 20.6652 8.49517 27.3615C9.30839 27.3615 10.1526 27.3614 10.9967 27.3615C17.7225 27.3622 24.4486 27.3274 31.174 27.3791C34.3339 27.4034 36.2911 29.6452 35.5023 32.2368C34.9944 33.9053 33.8897 34.9936 32.0414 35.0552C30.4417 35.1086 28.8397 35.0946 26.9998 35.1105Z" fill="#585DFB"/>
<path d="M69.8559 23.4356C74.4392 19.7867 79.506 17.8498 85.2997 17.9497C87.6867 17.9909 89.2764 19.3398 89.4149 21.4694C89.5695 23.8474 88.3642 25.4327 85.8665 25.7C82.6919 26.0398 79.5301 26.3152 76.7768 28.1377C71.5103 31.6237 68.5337 36.3927 68.5371 42.8191C68.5401 48.4042 68.5478 53.9894 68.5296 59.5745C68.5231 61.5982 67.4693 63.1689 65.8029 63.7731C63.523 64.5997 60.7066 63.0832 60.7054 60.5965C60.7016 52.8407 60.5916 45.0489 61.2935 37.3407C61.8128 31.6383 65.4371 27.2187 69.8559 23.4356Z" fill="#6774FA"/>
<path d="M321.352 57.7561C314.147 64.1456 303.628 65.206 295.325 60.4672C287.084 55.7645 283.079 46.4787 284.463 37.0112C285.893 27.2265 296.2 18.7992 305.677 18.5529C317.055 18.2572 326.957 26.5085 328.672 36.9122C330.002 44.9812 327.749 52.0749 321.352 57.7561ZM293.314 47.1635C296.762 53.8445 303.144 56.8008 310.499 55.1243C316.694 53.7122 321.229 47.5888 321.183 40.6962C321.143 34.7006 317.539 29.5543 311.769 27.2543C306.553 25.1749 300.109 26.5753 296.063 30.6678C291.904 34.8744 290.746 41.3232 293.314 47.1635Z" fill="#9BCAF5"/>
</svg>
