<svg width="16" height="12" viewBox="0 0 16 12" fill="none" xmlns="http://www.w3.org/2000/svg">
<path d="M15.0369 4.007C13.2924 1.4641 10.74 0 8.05162 0C6.70743 0 5.401 0.364273 4.20785 1.04378C3.01469 1.7303 1.94236 2.73205 1.06637 4.007C0.311209 5.10683 0.311209 6.89317 1.06637 7.993C2.8108 10.5429 5.36325 12 8.05162 12C9.39581 12 10.7022 11.6357 11.8954 10.9562C13.0886 10.2697 14.1609 9.26795 15.0369 7.993C15.792 6.90018 15.792 5.10683 15.0369 4.007ZM8.05162 8.83363C6.36006 8.83363 5.00077 7.56568 5.00077 6.00351C5.00077 4.44133 6.36006 3.17338 8.05162 3.17338C9.74319 3.17338 11.1025 4.44133 11.1025 6.00351C11.1025 7.56568 9.74319 8.83363 8.05162 8.83363Z" fill="black" fill-opacity="0.5"/>
<path d="M8.05041 4.00074C6.8648 4.00074 5.89822 4.89739 5.89822 6.00422C5.89822 7.10405 6.8648 8.00072 8.05041 8.00072C9.23601 8.00072 10.2102 7.10405 10.2102 6.00422C10.2102 4.9044 9.23601 4.00074 8.05041 4.00074Z" fill="black" fill-opacity="0.5"/>
</svg>
